<?xml version="1.0" encoding="UTF-8" standalone="no"?>
<svg
   version="1.1"
   x="0px"
   y="0px"
   viewBox="0 0 400.52164 55.195809"
   enable-background="new 0 0 100 100"
   xml:space="preserve"
   id="svg8"
   sodipodi:docname="saw.svg"
   width="400.52164"
   height="55.195808"
   inkscape:version="1.1 (ce6663b3b7, 2021-05-25)"
   xmlns:inkscape="http://www.inkscape.org/namespaces/inkscape"
   xmlns:sodipodi="http://sodipodi.sourceforge.net/DTD/sodipodi-0.dtd"
   xmlns="http://www.w3.org/2000/svg"
   xmlns:svg="http://www.w3.org/2000/svg"><defs
     id="defs12"><rect
       x="142.62918"
       y="-61.741833"
       width="0.50795138"
       height="40.899593"
       id="rect46329" /></defs><sodipodi:namedview
     id="namedview10"
     pagecolor="#a0a0a0"
     bordercolor="#666666"
     borderopacity="1.0"
     inkscape:pageshadow="2"
     inkscape:pageopacity="0"
     inkscape:pagecheckerboard="true"
     showgrid="false"
     fit-margin-top="0"
     fit-margin-left="0"
     fit-margin-right="0"
     fit-margin-bottom="0"
     inkscape:zoom="2.3871925"
     inkscape:cx="240.65927"
     inkscape:cy="79.800854"
     inkscape:window-width="1848"
     inkscape:window-height="1016"
     inkscape:window-x="72"
     inkscape:window-y="27"
     inkscape:window-maximized="1"
     inkscape:current-layer="svg8" /><text
     xml:space="preserve"
     id="text46327"
     style="font-style:normal;font-weight:normal;font-size:40px;line-height:1.25;font-family:sans-serif;white-space:pre;shape-inside:url(#rect46329);fill:#000000;fill-opacity:1;stroke:none"
     transform="translate(-38.984516,61.469102)" /><g
     id="g903"><path
       fill-rule="evenodd"
       clip-rule="evenodd"
       d="m 64.912028,2.989903 6.250004,9.300001 c 0.234,0.367 0.25,0.717001 0.051,1.050001 -0.234,0.333 -0.533,0.5 -0.9,0.5 l -4.051,-0.15 -0.5,2.9 c -0.066,0.533 -0.383004,0.8 -0.949004,0.8 l -3,0.1 -0.25,2.2 c 0,0.466 -0.268,0.767 -0.801,0.9 l -3.449,0.6 -0.5,2.8 c -0.066,0.267 -0.199,0.483 -0.4,0.65 -0.232,0.133 -0.482,0.184 -0.75,0.15 l -2.1,-0.35 -1.051,3.05 c -0.166,0.5 -0.516,0.717 -1.049,0.65 l -2.951,-0.35 -1.199,3.6 c -0.066,0.267 -0.217,0.467 -0.449,0.6 -0.234,0.1 -0.484,0.117 -0.75,0.05 l -2.201,-0.6 -0.75,3 c -0.166,0.566 -0.549,0.816 -1.15,0.75 l -2.398,-0.4 -0.15,2.3 c 0,0.333 -0.133,0.583 -0.4,0.75 -0.268,0.2 -0.551,0.25 -0.85,0.15 l -4.250001,-1.25 c -0.1,0.233 -0.217,0.383 -0.35,0.45 l -1.4,1.85 c -0.867,1.233 -1.451,2.217 -1.75,2.95 -0.301,0.967 -1.084,1.75 -2.35,2.35 -1.9,0.9 -3.084,1.5 -3.551,1.8 l -0.1,0.05 c -0.334,0.233 -0.984,0.899 -1.951,2 l -1.648,1.85 -0.25,0.2 c -0.602,0.267 -1.135,0.4 -1.602,0.4 h -0.25 c -0.932,-0.101 -1.581999,-0.551 -1.948999,-1.351 -0.699,-1.366 -1.449,-3.683 -2.25,-6.95 l -0.949,-4.55 v -0.05 c -0.4,-0.4 -1.033,-0.767 -1.9,-1.1 -1.566,-0.667 -2.4999999,-1.25 -2.8009999,-1.75 l -0.049,-0.05 c -0.301,-0.767 -0.084,-1.55 0.648,-2.35 l -4.35,-1.4 c -0.467,-0.167 -0.699,-0.483 -0.699,-0.95 l 0.1,-3.9 c 0.066,-0.567 0.35,-0.9 0.85,-1 l 0.6,-0.1 h 0.051 l 4.5999999,-1.05 -5.0999999,-1.65 c -0.467,-0.167 -0.699,-0.483 -0.699,-0.95 l 0.1,-3.95 c 0.066,-0.533 0.332,-0.85 0.799,-0.95 l 0.65,-0.15 0.1,-0.05 1.301,-0.2 26.6499989,-7.300002 c 0.199,-0.066 0.383,-0.066 0.549,0 l 11.602001,3.450001 17.1,-9.500001 c 0.396,-0.233 0.794,-0.183 1.195,0.151 z m -8.651,16.350002 3.4,-0.6 0.25,-2.3 c 0.066,-0.534 0.383,-0.833 0.951,-0.9 l 3.1,-0.1 0.5,-2.950001 c 0.1,-0.567 0.434,-0.85 1,-0.85 l 2.949004,0.15 -4.549004,-6.800001 -30.102001,16.850002 0.352,0.45 0.049,0.2 c 0.133,0.267 0.051,1.017 -0.25,2.25 l -0.1,0.4 v 0.25 l -0.4,1.4 c -0.299,1.167 -0.434,2.167 -0.4,3 0.068,0.767 0.234,1.383 0.5,1.85 0.467,1.067 0.75,1.95 0.852,2.65 l 0.049,0.5 3.150001,0.95 0.15,-2.15 c 0,-0.3 0.117,-0.533 0.35,-0.7 0.232,-0.233 0.5,-0.316 0.801,-0.25 l 2.6,0.45 0.75,-3.15 c 0.033,-0.2 0.184,-0.4 0.449,-0.6 0.268,-0.167 0.533,-0.2 0.801,-0.1 l 2.25,0.65 1.15,-3.5 c 0.166,-0.533 0.533,-0.767 1.1,-0.7 l 2.949,0.35 1.051,-3.05 c 0.166,-0.533 0.533,-0.767 1.1,-0.7 l 1.949,0.35 0.451,-2.45 c 0.066,-0.434 0.331,-0.717 0.798,-0.85 z m 8.901,0.3 c -0.133,-0.267 -0.166,-0.533 -0.1,-0.8 0.066,-0.267 0.232,-0.45 0.500004,-0.55 0.232,-0.133 0.482,-0.167 0.75,-0.1 l 26.4,7.85 c 0.266,0.067 0.467,0.2 0.6,0.4 0.166,0.2 0.217,0.417 0.15,0.65 l -0.4,3.35 c 0,0.4 -0.184,0.667 -0.551,0.8 l -4.799,2.15 4.699,1.4 c 0.566,0.167 0.801,0.534 0.701,1.1 l -0.5,3.35 c -0.068,0.4 -0.25,0.65 -0.551,0.75 l -23.65,10.55 c -0.133,0.067 -0.316,0.101 -0.549,0.101 -0.234,0.166 -0.467,0.25 -0.701,0.25 l -0.299,-0.051 -32.602005,-10.45 c -0.266,-0.066 -0.449,-0.217 -0.549,-0.45 -0.133,-0.267 -0.168,-0.534 -0.1,-0.8 0.232,-0.6 0.666,-0.816 1.299,-0.65 l 32.100005,10.3 v -3.1 l -24.500004,-7.45 c -0.266,-0.067 -0.467,-0.217 -0.6,-0.45 -0.133,-0.267 -0.166,-0.533 -0.1,-0.8 0.1,-0.267 0.268,-0.45 0.5,-0.55 0.268,-0.133 0.518,-0.167 0.75,-0.1 l 24.551004,7.45 0.199,-0.05 20.5,-8.1 -3.4,-1.05 -16.15,7.15 c -0.1,0.067 -0.25,0.1 -0.449,0.1 -0.301,0.367 -0.666,0.467 -1.1,0.3 l -21.201004,-6.75 c -0.266,-0.066 -0.449,-0.217 -0.549,-0.45 -0.133,-0.267 -0.168,-0.534 -0.1,-0.8 0.232,-0.6 0.666,-0.816 1.299,-0.65 l 20.701004,6.6 v -3.1 l -17.150004,-5.2 c -0.268,-0.066 -0.467,-0.216 -0.6,-0.45 -0.135,-0.267 -0.168,-0.533 -0.102,-0.8 0.102,-0.267 0.268,-0.45 0.5,-0.55 0.268,-0.133 0.518,-0.167 0.75,-0.1 l 17.201004,5.15 h 0.15 l 20.5,-8.1 -22.852,-6.85 c -0.262,-0.067 -0.464004,-0.217 -0.596004,-0.45 z m -30.450001,-8.750001 -24.200999,6.650001 15.649999,4.8 4.051,-2.35 c 0.367,-0.233 0.732,-0.25 1.1,-0.05 l 0.801,0.55 12.049001,-6.8 z m -3.15,11.600001 c -0.232,-0.067 -0.4,-0.183 -0.5,-0.35 l -0.25,-0.15 -7.85,4.55 c -0.467,0.267 -0.734,0.417 -0.801,0.45 l -0.449,0.3 h -0.051 l -4.798999,2.8 -0.102,0.05 -4.648,2.8 c -0.568,0.367 -0.984,0.733 -1.25,1.1 l 1.6,0.75 c 1.266,0.5 2.166,1.067 2.699,1.7 0.168,0.133 0.283,0.367 0.35,0.7 0.135,0.5 0.467,2.066 1,4.7 0.768,3.133 1.466999,5.317 2.101999,6.55 0.066,0.134 0.182,0.2 0.35,0.2 0.133,0.033 0.316,0 0.549,-0.101 l 1.5,-1.649 c 1.033,-1.234 1.852,-2.034 2.451,-2.4 0.533,-0.367 1.799,-1.017 3.799,-1.95 0.768,-0.367 1.201,-0.767 1.301,-1.2 0.367,-0.934 1.033,-2.083 2,-3.45 l 1.551,-2 c 0.133,-0.133 0.232,-0.3 0.299,-0.5 v -0.05 c 0.066,-0.2 0.066,-0.45 0,-0.75 -0.1,-0.667 -0.332,-1.333 -0.699,-2 -0.434,-0.8 -0.65,-1.7 -0.65,-2.7 -0.1,-1.066 0.033,-2.267 0.4,-3.6 l 0.35,-1.1 0.4,-2.1 z m -24.6499989,-1.7 14.2009989,4.5 2.699,-1.55 -16.8499989,-5.2 z m 11.5499989,11.65 -0.15,0.1 0.4,1.25 c 1.066,3.367 1.883,5.633 2.449,6.8 0.334,0.7 0.551,1.066 0.65,1.1 l 0.199,0.2 c 0.467,-0.233 0.801,-0.45 1,-0.65 l 0.051,-0.15 c 0.1,-0.367 0.033,-1.15 -0.199,-2.35 l -0.701,-2.7 c -0.533,-1.833 -0.9,-3 -1.1,-3.5 -0.268,-0.466 -0.518,-0.7 -0.75,-0.7 -0.399,0 -1.017,0.2 -1.849,0.6 z m 1.85,-2.6 c 1.066,0 1.916,0.617 2.551,1.85 0.199,0.4 0.615,1.683 1.25,3.85 l 0.699,2.75 c 0.334,1.6 0.383,2.733 0.15,3.4 -0.168,0.733 -0.867,1.383 -2.1,1.95 -0.334,0.167 -0.635,0.25 -0.9,0.25 -0.633,0 -1.201,-0.3 -1.701,-0.9 -0.232,-0.3 -0.533,-0.8 -0.898,-1.5 -0.701,-1.433 -1.551,-3.8 -2.550999,-7.1 l -0.6,-1.9 c -0.1,-0.267 -0.051,-0.567 0.15,-0.9 0.332,-0.4 0.75,-0.717 1.249999,-0.95 1.1,-0.534 2.001,-0.8 2.7,-0.8 z m -1.5,-3.15 -4.649999,-1.5 -4.1,1.1 6.15,1.85 z m -12.2499989,0.6 -0.051,2.15 4.8999999,1.55 2.4,-1.45 z m 77.9000039,5.35 6.699,-3 0.201,-1.65 -22,8.7 v 2.6 l 15.049,-6.65 z m 6.5,4.05 -21.951,8.75 v 2.649 l 21.701,-9.7 z"
       id="path2"
       style="fill:#f2f2f2" /><g
       aria-label="tiny friends woodshop"
       id="text60680"
       style="font-size:40px;line-height:1.25;font-family:Dyuthi;-inkscape-font-specification:Dyuthi;fill:#f2f2f2"><path
         d="m 111.81212,34.686878 q 0.78125,0 1.52344,-0.234375 v 3.554688 q -1.11329,0.234375 -2.40235,0.234375 -2.7539,0 -4.47265,-1.777344 -1.71875,-1.796875 -1.71875,-5 v -7.929688 h -2.94922 v -3.378906 h 2.94922 v -7.382812 h 3.61328 v 7.382812 h 4.17968 v 3.378906 h -4.17968 v 7.8125 q 0,3.339844 3.45703,3.339844 z"
         style="font-family:Keraleeyam;-inkscape-font-specification:Keraleeyam"
         id="path825" /><path
         d="m 118.21837,17.811878 h -3.73047 v -3.808594 h 3.73047 z m 0,20.039063 H 114.4879 V 20.155628 h 3.73047 z"
         style="font-family:Keraleeyam;-inkscape-font-specification:Keraleeyam"
         id="path827" /><path
         d="m 130.17149,27.245472 q 0,-4.140625 -3.45703,-4.140625 -1.75781,0 -2.7539,1.015625 -0.97657,0.996094 -0.97657,3.125 v 10.605469 h -3.65234 V 20.253284 h 3.61328 l -0.0391,2.8125 q 0.42969,-1.621093 1.79687,-2.519531 1.36719,-0.898437 2.92969,-0.898437 6.17188,0 6.17188,7.324218 v 10.878907 h -3.63282 z"
         style="font-family:Keraleeyam;-inkscape-font-specification:Keraleeyam"
         id="path829" /><path
         d="m 142.37852,45.038441 q -0.60546,0.800781 -1.52343,1.25 -0.91797,0.46875 -2.2461,0.46875 -1.32812,0 -2.61718,-0.3125 v -3.183594 q 2.22656,0.644531 3.4375,-0.07813 1.21093,-0.722656 1.77734,-2.734375 l 0.70312,-2.460938 -7.01171,-17.8125 h 4.23828 l 4.45312,13.828125 4.31641,-13.828125 h 4.08203 l -7.67578,20.664063 q -0.46875,1.25 -0.89844,2.324219 -0.41016,1.09375 -1.03516,1.875 z"
         style="font-family:Keraleeyam;-inkscape-font-specification:Keraleeyam"
         id="path831" /><path
         d="m 173.98009,15.995472 q -3.45703,0 -3.45703,3.339844 v 0.878906 h 4.17968 v 3.378906 h -4.17968 v 14.179688 h -3.61329 V 23.593128 h -2.94921 v -3.378906 h 2.94921 v -1.015625 q 0,-3.183594 1.71875,-4.980469 1.71875,-1.796875 4.49219,-1.796875 1.28906,0 2.38281,0.234375 v 3.574219 q -0.74218,-0.234375 -1.52343,-0.234375 z"
         style="font-family:Keraleeyam;-inkscape-font-specification:Keraleeyam"
         id="path833" /><path
         d="m 184.15587,19.804066 q 0.70312,-0.15625 1.21094,-0.15625 0.50781,0 1.03515,0.09766 v 3.828125 q -0.58594,-0.15625 -1.44531,-0.15625 -1.85547,0 -3.14453,1.09375 -1.28906,1.074219 -1.28906,3.027344 v 10.273437 h -3.88672 V 20.116566 h 3.76953 l 0.15625,2.402343 q 0.99609,-2.1875 3.59375,-2.714843 z"
         style="font-family:Keraleeyam;-inkscape-font-specification:Keraleeyam"
         id="path835" /><path
         d="m 191.32384,17.811878 h -3.73047 v -3.808594 h 3.73047 z m 0,20.039063 h -3.73047 V 20.155628 h 3.73047 z"
         style="font-family:Keraleeyam;-inkscape-font-specification:Keraleeyam"
         id="path837" /><path
         d="m 206.75352,37.323597 q -2.48046,0.917969 -5.19531,0.917969 -4.86328,0 -7.01172,-2.441407 -2.14843,-2.460937 -2.14843,-6.699218 0,-4.238282 2.1289,-6.796875 2.12891,-2.578125 5.72266,-2.578125 3.61328,0 5.58594,2.363281 1.97265,2.363281 1.97265,6.054687 0,1.40625 -0.11719,2.148438 h -11.42578 q 0,3.671875 3.51563,4.277344 1.01562,0.175781 2.07031,0.175781 2.51953,0 4.90234,-1.015625 z m -2.53906,-10.039063 q 0,-1.875 -1.11328,-2.949218 -1.11328,-1.09375 -2.83203,-1.09375 -1.69922,0 -2.85156,1.054687 -1.15235,1.054688 -1.15235,2.988281 z"
         style="font-family:Keraleeyam;-inkscape-font-specification:Keraleeyam"
         id="path839" /><path
         d="m 219.87852,27.245472 q 0,-4.140625 -3.45703,-4.140625 -1.75781,0 -2.7539,1.015625 -0.97657,0.996094 -0.97657,3.125 v 10.605469 h -3.65234 V 20.253284 h 3.61328 l -0.0391,2.8125 q 0.42969,-1.621093 1.79687,-2.519531 1.36719,-0.898437 2.92969,-0.898437 6.17188,0 6.17188,7.324218 v 10.878907 h -3.63282 z"
         style="font-family:Keraleeyam;-inkscape-font-specification:Keraleeyam"
         id="path841" /><path
         d="m 231.89024,19.686878 q 3.4375,0 4.60938,2.5 v -9.628906 h 3.71094 v 25.429687 h -3.45704 l -0.17578,-2.050781 q -1.5039,2.460938 -4.80468,2.460938 -3.28125,0 -5.15625,-2.5 -1.85547,-2.5 -1.85547,-7.109375 -0.0195,-6.816407 4.19922,-8.554688 1.32812,-0.546875 2.92968,-0.546875 z m 4.60938,12.851563 v -5.019532 q 0,-3.085937 -2.22656,-3.847656 -0.66407,-0.234375 -1.48438,-0.234375 -2.22656,0 -3.16406,1.367188 -0.9375,1.328125 -0.9375,3.398437 0,2.070313 0.3125,3.125 0.91797,2.949219 4.0039,2.96875 1.03516,0 2.01172,-0.429687 0.97657,-0.429688 1.48438,-1.328125 z"
         style="font-family:Keraleeyam;-inkscape-font-specification:Keraleeyam"
         id="path843" /><path
         d="m 241.40196,25.429066 q 0.0195,-3.984375 4.04297,-5.273438 1.25,-0.390625 3.35938,-0.390625 2.1289,0 3.76953,0.820313 v 3.378906 q -1.5625,-0.957031 -2.44141,-1.035156 -0.87891,-0.09766 -1.85547,-0.09766 -0.97656,0 -2.07031,0.527344 -1.11328,0.507813 -1.11328,1.367188 0,0.859375 0.625,1.269531 0.99609,0.605469 2.71484,1.074219 1.73828,0.46875 2.44141,0.976562 2.14844,1.484375 2.14844,4.101563 0,2.617187 -1.89454,4.355468 -1.89453,1.738282 -5.2539,1.738282 -2.34375,0 -4.23828,-0.605469 v -3.574219 q 1.875,0.722656 4.16015,0.722656 2.28516,0 3.26172,-1.074218 0.3711,-0.390625 0.3711,-1.152344 0,-0.761719 -0.78125,-1.25 -0.76172,-0.488281 -3.125,-1.191406 -2.36329,-0.703125 -3.24219,-1.933594 -0.87891,-1.230469 -0.87891,-2.753906 z"
         style="font-family:Keraleeyam;-inkscape-font-specification:Keraleeyam"
         id="path845" /><path
         d="m 286.28477,20.292347 -3.98437,17.558594 h -3.88672 l -2.91016,-10.351563 -2.96875,10.351563 h -3.88671 l -3.86719,-17.558594 h 3.59375 l 2.36328,11.757812 2.98828,-9.902343 h 3.67188 l 3.10546,9.902343 2.14844,-11.757812 z"
         style="font-family:Keraleeyam;-inkscape-font-specification:Keraleeyam"
         id="path847" /><path
         d="m 302.16368,28.925159 q 0,4.199219 -1.89453,6.738282 -1.875,2.519531 -5.56641,2.519531 -3.6914,0 -5.60547,-2.519531 -1.91406,-2.519532 -1.91406,-6.738282 0,-6.542968 4.19922,-8.574218 1.38672,-0.664063 3.30078,-0.664063 3.67188,0 5.56641,2.519531 1.91406,2.5 1.91406,6.71875 z m -7.44141,5.800782 q 1.97266,0 2.83204,-1.464844 0.8789,-1.484375 0.8789,-3.671875 0,-2.1875 -0.21484,-3.242188 -0.21485,-1.074218 -0.66406,-1.757812 -0.85938,-1.308594 -2.83204,-1.308594 -1.97265,0 -2.85156,1.328125 -0.8789,1.308594 -0.8789,4.238281 0,2.929688 0.8789,4.414063 0.89844,1.464844 2.85156,1.464844 z"
         style="font-family:Keraleeyam;-inkscape-font-specification:Keraleeyam"
         id="path849" /><path
         d="m 318.37462,28.925159 q 0,4.199219 -1.89453,6.738282 -1.875,2.519531 -5.56641,2.519531 -3.69141,0 -5.60547,-2.519531 -1.91406,-2.519532 -1.91406,-6.738282 0,-6.542968 4.19922,-8.574218 1.38672,-0.664063 3.30078,-0.664063 3.67187,0 5.56641,2.519531 1.91406,2.5 1.91406,6.71875 z m -7.44141,5.800782 q 1.97266,0 2.83203,-1.464844 0.87891,-1.484375 0.87891,-3.671875 0,-2.1875 -0.21484,-3.242188 -0.21485,-1.074218 -0.66407,-1.757812 -0.85937,-1.308594 -2.83203,-1.308594 -1.97265,0 -2.85156,1.328125 -0.87891,1.308594 -0.87891,4.238281 0,2.929688 0.87891,4.414063 0.89844,1.464844 2.85156,1.464844 z"
         style="font-family:Keraleeyam;-inkscape-font-specification:Keraleeyam"
         id="path851" /><path
         d="m 326.83165,19.686878 q 3.4375,0 4.60937,2.5 v -9.628906 h 3.71094 v 25.429687 h -3.45703 l -0.17578,-2.050781 q -1.50391,2.460938 -4.80469,2.460938 -3.28125,0 -5.15625,-2.5 -1.85547,-2.5 -1.85547,-7.109375 -0.0195,-6.816407 4.19922,-8.554688 1.32813,-0.546875 2.92969,-0.546875 z m 4.60937,12.851563 v -5.019532 q 0,-3.085937 -2.22656,-3.847656 -0.66406,-0.234375 -1.48437,-0.234375 -2.22657,0 -3.16407,1.367188 -0.9375,1.328125 -0.9375,3.398437 0,2.070313 0.3125,3.125 0.91797,2.949219 4.00391,2.96875 1.03516,0 2.01172,-0.429687 0.97656,-0.429688 1.48437,-1.328125 z"
         style="font-family:Keraleeyam;-inkscape-font-specification:Keraleeyam"
         id="path853" /><path
         d="m 336.34337,25.429066 q 0.0195,-3.984375 4.04297,-5.273438 1.25,-0.390625 3.35937,-0.390625 2.12891,0 3.76953,0.820313 v 3.378906 q -1.5625,-0.957031 -2.4414,-1.035156 -0.87891,-0.09766 -1.85547,-0.09766 -0.97656,0 -2.07031,0.527344 -1.11329,0.507813 -1.11329,1.367188 0,0.859375 0.625,1.269531 0.9961,0.605469 2.71485,1.074219 1.73828,0.46875 2.4414,0.976562 2.14844,1.484375 2.14844,4.101563 0,2.617187 -1.89453,4.355468 -1.89453,1.738282 -5.25391,1.738282 -2.34375,0 -4.23828,-0.605469 v -3.574219 q 1.875,0.722656 4.16016,0.722656 2.28516,0 3.26172,-1.074218 0.37109,-0.390625 0.37109,-1.152344 0,-0.761719 -0.78125,-1.25 -0.76172,-0.488281 -3.125,-1.191406 -2.36328,-0.703125 -3.24219,-1.933594 -0.8789,-1.230469 -0.8789,-2.753906 z"
         style="font-family:Keraleeyam;-inkscape-font-specification:Keraleeyam"
         id="path855" /><path
         d="m 352.80821,22.577503 q 1.73828,-2.734375 4.90235,-2.734375 4.16015,0 5.52734,4.023438 0.50781,1.445312 0.50781,3.574218 v 10.410157 h -3.75 V 27.401722 q 0,-4.140625 -3.45703,-4.140625 -1.75781,0 -2.75391,1.015625 -0.97656,0.996094 -0.97656,3.125 v 10.449219 h -3.65234 V 12.772816 h 3.65234 z"
         style="font-family:Keraleeyam;-inkscape-font-specification:Keraleeyam"
         id="path857" /><path
         d="m 379.93712,28.925159 q 0,4.199219 -1.89453,6.738282 -1.875,2.519531 -5.56641,2.519531 -3.69141,0 -5.60547,-2.519531 -1.91406,-2.519532 -1.91406,-6.738282 0,-6.542968 4.19922,-8.574218 1.38672,-0.664063 3.30078,-0.664063 3.67187,0 5.56641,2.519531 1.91406,2.5 1.91406,6.71875 z m -7.44141,5.800782 q 1.97266,0 2.83203,-1.464844 0.87891,-1.484375 0.87891,-3.671875 0,-2.1875 -0.21484,-3.242188 -0.21485,-1.074218 -0.66407,-1.757812 -0.85937,-1.308594 -2.83203,-1.308594 -1.97265,0 -2.85156,1.328125 -0.87891,1.308594 -0.87891,4.238281 0,2.929688 0.87891,4.414063 0.89844,1.464844 2.85156,1.464844 z"
         style="font-family:Keraleeyam;-inkscape-font-specification:Keraleeyam"
         id="path859" /><path
         d="m 384.78087,22.147816 q 1.23047,-2.5 4.60937,-2.5 5.13672,0 6.64063,5.078125 0.50781,1.71875 0.50781,4.023437 0,4.609375 -1.85547,7.070313 -1.85547,2.460937 -5.11719,2.460937 -3.24218,0 -4.78515,-2.460937 v 10.332031 h -3.67188 v -26.09375 h 3.59375 z m 0,10.273437 q 1.13281,1.796875 3.55469,1.796875 3.08593,0 4.0039,-2.890625 0.33203,-1.054687 0.33203,-3.125 0,-2.070312 -0.95703,-3.398437 -0.9375,-1.347657 -3.3789,-1.347657 -2.44141,0 -3.26172,2.207032 -0.27344,0.761718 -0.29297,1.816406 z"
         style="font-family:Keraleeyam;-inkscape-font-specification:Keraleeyam"
         id="path861" /></g></g></svg>
