<?xml version="1.0" encoding="UTF-8" standalone="no"?>
<svg
   version="1.1"
   x="0px"
   y="0px"
   viewBox="0 0 389.52164 48.195809"
   enable-background="new 0 0 100 100"
   xml:space="preserve"
   id="svg8"
   sodipodi:docname="saw.svg"
   width="389.52164"
   height="48.195808"
   inkscape:version="1.1 (ce6663b3b7, 2021-05-25)"
   xmlns:inkscape="http://www.inkscape.org/namespaces/inkscape"
   xmlns:sodipodi="http://sodipodi.sourceforge.net/DTD/sodipodi-0.dtd"
   xmlns="http://www.w3.org/2000/svg"
   xmlns:svg="http://www.w3.org/2000/svg"><defs
     id="defs12"><rect
       x="142.62918"
       y="-61.741833"
       width="0.50795138"
       height="40.899593"
       id="rect46329" /></defs><sodipodi:namedview
     id="namedview10"
     pagecolor="#a0a0a0"
     bordercolor="#666666"
     borderopacity="1.0"
     inkscape:pageshadow="2"
     inkscape:pageopacity="0"
     inkscape:pagecheckerboard="true"
     showgrid="false"
     fit-margin-top="0"
     fit-margin-left="0"
     fit-margin-right="0"
     fit-margin-bottom="0"
     inkscape:zoom="1.688"
     inkscape:cx="250.59242"
     inkscape:cy="16.883886"
     inkscape:window-width="1848"
     inkscape:window-height="1016"
     inkscape:window-x="72"
     inkscape:window-y="27"
     inkscape:window-maximized="1"
     inkscape:current-layer="svg8" /><path
     fill-rule="evenodd"
     clip-rule="evenodd"
     d="m 60.448,0.29480576 6.250004,9.30000004 c 0.234,0.367 0.25,0.7170012 0.051,1.0500012 -0.234,0.333 -0.533,0.5 -0.9,0.5 l -4.051,-0.15 -0.5,2.9 c -0.066,0.533 -0.383004,0.8 -0.949004,0.8 l -3,0.1 -0.25,2.2 c 0,0.466 -0.268,0.767 -0.801,0.9 l -3.449,0.6 -0.5,2.8 c -0.066,0.267 -0.199,0.483 -0.4,0.65 -0.232,0.133 -0.482,0.184 -0.75,0.15 l -2.1,-0.35 -1.051,3.05 c -0.166,0.5 -0.516,0.717 -1.049,0.65 l -2.951,-0.35 -1.199,3.6 c -0.066,0.267 -0.217,0.467 -0.449,0.6 -0.234,0.1 -0.484,0.117 -0.75,0.05 l -2.201,-0.6 -0.75,3 c -0.166,0.566 -0.549,0.816 -1.15,0.75 l -2.398,-0.4 -0.15,2.3 c 0,0.333 -0.133,0.583 -0.4,0.75 -0.268,0.2 -0.551,0.25 -0.85,0.15 l -4.250001,-1.25 c -0.1,0.233 -0.217,0.383 -0.35,0.45 l -1.4,1.85 c -0.867,1.233 -1.451,2.217 -1.75,2.95 -0.301,0.967 -1.084,1.75 -2.35,2.35 -1.9,0.9 -3.084,1.5 -3.551,1.8 l -0.1,0.05 c -0.334,0.233 -0.984,0.899 -1.951,2 l -1.648,1.85 -0.25,0.2 c -0.602,0.267 -1.135,0.4 -1.602,0.4 h -0.25 c -0.932,-0.101 -1.581999,-0.551 -1.948999,-1.351 -0.699,-1.366 -1.449,-3.683 -2.25,-6.95 l -0.949,-4.55 v -0.05 c -0.4,-0.4 -1.033,-0.767 -1.9,-1.1 -1.566,-0.667 -2.5,-1.25 -2.801,-1.75 l -0.049,-0.05 c -0.301,-0.767 -0.084,-1.55 0.648,-2.35 l -4.35,-1.4 C 0.232,28.226807 0,27.910807 0,27.443807 l 0.1,-3.9 c 0.066,-0.567 0.35,-0.9 0.85,-1 l 0.6,-0.1 h 0.051 l 4.6,-1.05 -5.1,-1.65 c -0.467,-0.167 -0.699,-0.483 -0.699,-0.95 l 0.1,-3.95 c 0.066,-0.533 0.332,-0.85 0.799,-0.95 l 0.65,-0.15 0.1,-0.05 1.301,-0.2 26.649999,-7.3000012 c 0.199,-0.066 0.383,-0.066 0.549,0 l 11.602001,3.45 17.1,-9.50000004 c 0.396,-0.233 0.794,-0.183 1.195,0.151 z m -8.651,16.35000124 3.4,-0.6 0.25,-2.3 c 0.066,-0.534 0.383,-0.833 0.951,-0.9 l 3.1,-0.1 0.5,-2.9500012 c 0.1,-0.567 0.434,-0.85 1,-0.85 l 2.949004,0.15 -4.549004,-6.8 -30.102001,16.8500012 0.352,0.45 0.049,0.2 c 0.133,0.267 0.051,1.017 -0.25,2.25 l -0.1,0.4 v 0.25 l -0.4,1.4 c -0.299,1.167 -0.434,2.167 -0.4,3 0.068,0.767 0.234,1.383 0.5,1.85 0.467,1.067 0.75,1.95 0.852,2.65 l 0.049,0.5 3.150001,0.95 0.15,-2.15 c 0,-0.3 0.117,-0.533 0.35,-0.7 0.232,-0.233 0.5,-0.316 0.801,-0.25 l 2.6,0.45 0.75,-3.15 c 0.033,-0.2 0.184,-0.4 0.449,-0.6 0.268,-0.167 0.533,-0.2 0.801,-0.1 l 2.25,0.65 1.15,-3.5 c 0.166,-0.533 0.533,-0.767 1.1,-0.7 l 2.949,0.35 1.051,-3.05 c 0.166,-0.533 0.533,-0.767 1.1,-0.7 l 1.949,0.35 0.451,-2.45 c 0.066,-0.434 0.331,-0.717 0.798,-0.85 z m 8.901,0.3 c -0.133,-0.267 -0.166,-0.533 -0.1,-0.8 0.066,-0.267 0.232,-0.45 0.500004,-0.55 0.232,-0.133 0.482,-0.167 0.75,-0.1 l 26.4,7.85 c 0.266,0.067 0.467,0.2 0.6,0.4 0.166,0.2 0.217,0.417 0.15,0.65 l -0.4,3.35 c 0,0.4 -0.184,0.667 -0.551,0.8 l -4.799,2.15 4.699,1.4 c 0.566,0.167 0.801,0.534 0.701,1.1 l -0.5,3.35 c -0.068,0.4 -0.25,0.65 -0.551,0.75 l -23.65,10.55 c -0.133,0.067 -0.316,0.101 -0.549,0.101 -0.234,0.166 -0.467,0.25 -0.701,0.25 l -0.299,-0.051 -32.602005,-10.45 c -0.266,-0.066 -0.449,-0.217 -0.549,-0.45 -0.133,-0.267 -0.168,-0.534 -0.1,-0.8 0.232,-0.6 0.666,-0.816 1.299,-0.65 l 32.100005,10.3 v -3.1 l -24.500004,-7.45 c -0.266,-0.067 -0.467,-0.217 -0.6,-0.45 -0.133,-0.267 -0.166,-0.533 -0.1,-0.8 0.1,-0.267 0.268,-0.45 0.5,-0.55 0.268,-0.133 0.518,-0.167 0.75,-0.1 l 24.551004,7.45 0.199,-0.05 20.5,-8.1 -3.4,-1.05 -16.15,7.15 c -0.1,0.067 -0.25,0.1 -0.449,0.1 -0.301,0.367 -0.666,0.467 -1.1,0.3 l -21.201004,-6.75 c -0.266,-0.066 -0.449,-0.217 -0.549,-0.45 -0.133,-0.267 -0.168,-0.534 -0.1,-0.8 0.232,-0.6 0.666,-0.816 1.299,-0.65 l 20.701004,6.6 v -3.1 l -17.150004,-5.2 c -0.268,-0.066 -0.467,-0.216 -0.6,-0.45 -0.135,-0.267 -0.168,-0.533 -0.102,-0.8 0.102,-0.267 0.268,-0.45 0.5,-0.55 0.268,-0.133 0.518,-0.167 0.75,-0.1 l 17.201004,5.15 h 0.15 l 20.5,-8.1 -22.852,-6.85 c -0.262,-0.067 -0.464004,-0.217 -0.596004,-0.45 z M 30.247999,8.1948058 6.047,14.844807 l 15.649999,4.8 4.051,-2.35 c 0.367,-0.233 0.732,-0.25 1.1,-0.05 l 0.801,0.55 12.049001,-6.8 z m -3.15,11.6000012 c -0.232,-0.067 -0.4,-0.183 -0.5,-0.35 l -0.25,-0.15 -7.85,4.55 c -0.467,0.267 -0.734,0.417 -0.801,0.45 l -0.449,0.3 h -0.051 l -4.798999,2.8 -0.102,0.05 -4.648,2.8 c -0.568,0.367 -0.984,0.733 -1.25,1.1 l 1.6,0.75 c 1.266,0.5 2.166,1.067 2.699,1.7 0.168,0.133 0.283,0.367 0.35,0.7 0.135,0.5 0.467,2.066 1,4.7 0.768,3.133 1.466999,5.317 2.101999,6.55 0.066,0.134 0.182,0.2 0.35,0.2 0.133,0.033 0.316,0 0.549,-0.101 l 1.5,-1.649 c 1.033,-1.234 1.852,-2.034 2.451,-2.4 0.533,-0.367 1.799,-1.017 3.799,-1.95 0.768,-0.367 1.201,-0.767 1.301,-1.2 0.367,-0.934 1.033,-2.083 2,-3.45 l 1.551,-2 c 0.133,-0.133 0.232,-0.3 0.299,-0.5 v -0.05 c 0.066,-0.2 0.066,-0.45 0,-0.75 -0.1,-0.667 -0.332,-1.333 -0.699,-2 -0.434,-0.8 -0.65,-1.7 -0.65,-2.7 -0.1,-1.066 0.033,-2.267 0.4,-3.6 l 0.35,-1.1 0.4,-2.1 z m -24.649999,-1.7 14.200999,4.5 2.699,-1.55 -16.849999,-5.2 z m 11.549999,11.65 -0.15,0.1 0.4,1.25 c 1.066,3.367 1.883,5.633 2.449,6.8 0.334,0.7 0.551,1.066 0.65,1.1 l 0.199,0.2 c 0.467,-0.233 0.801,-0.45 1,-0.65 l 0.051,-0.15 c 0.1,-0.367 0.033,-1.15 -0.199,-2.35 l -0.701,-2.7 c -0.533,-1.833 -0.9,-3 -1.1,-3.5 -0.268,-0.466 -0.518,-0.7 -0.75,-0.7 -0.399,0 -1.017,0.2 -1.849,0.6 z m 1.85,-2.6 c 1.066,0 1.916,0.617 2.551,1.85 0.199,0.4 0.615,1.683 1.25,3.85 l 0.699,2.75 c 0.334,1.6 0.383,2.733 0.15,3.4 -0.168,0.733 -0.867,1.383 -2.1,1.95 -0.334,0.167 -0.635,0.25 -0.9,0.25 -0.633,0 -1.201,-0.3 -1.701,-0.9 -0.232,-0.3 -0.533,-0.8 -0.898,-1.5 -0.701,-1.433 -1.551,-3.8 -2.550999,-7.1 l -0.6,-1.9 c -0.1,-0.267 -0.051,-0.567 0.15,-0.9 0.332,-0.4 0.75,-0.717 1.249999,-0.95 1.1,-0.534 2.001,-0.8 2.7,-0.8 z m -1.5,-3.15 -4.649999,-1.5 -4.1,1.1 6.15,1.85 z m -12.249999,0.6 -0.051,2.15 4.9,1.55 2.4,-1.45 z m 77.900004,5.35 6.699,-3 0.201,-1.65 -22,8.7 v 2.6 l 15.049,-6.65 z m 6.5,4.05 -21.951,8.75 v 2.649 l 21.701,-9.7 z"
     id="path2"
     style="fill:#f2f2f2" /><text
     xml:space="preserve"
     id="text46327"
     style="font-style:normal;font-weight:normal;font-size:40px;line-height:1.25;font-family:sans-serif;white-space:pre;shape-inside:url(#rect46329);fill:#000000;fill-opacity:1;stroke:none"
     transform="translate(-38.984516,61.469102)" /><text
     xml:space="preserve"
     style="font-style:normal;font-variant:normal;font-weight:normal;font-stretch:normal;font-size:40px;line-height:1.25;font-family:Dyuthi;-inkscape-font-specification:Dyuthi;fill:#f2f2f2;fill-opacity:1;stroke:none"
     x="93.681808"
     y="33.611885"
     id="text60680"><tspan
       sodipodi:role="line"
       id="tspan60678"
       x="93.681808"
       y="33.611885"
       style="font-style:normal;font-variant:normal;font-weight:normal;font-stretch:normal;font-family:Keraleeyam;-inkscape-font-specification:Keraleeyam;fill:#f2f2f2">tiny friends woodshop</tspan></text></svg>
